<?xml version="1.0" encoding="UTF-8" standalone="no"?>
<svg version="1.1" width="175" height="55" 
	xmlns="http://www.w3.org/2000/svg" 
	xmlns:xlink="http://www.w3.org/1999/xlink">

<linearGradient id="blue_grad" x1="0%" x2="100%">
	<stop offset="0%" stop-color="#065eab"/>
	<stop offset="95%" stop-color="#064075"/>
</linearGradient>
<linearGradient id="yellow_grad" x1="0%" x2="100%">
	<stop offset="0%" stop-color="#ffce01"/>
	<stop offset="95%" stop-color="#d9a701"/>
</linearGradient>



<!--book-->
<g id="left_part">
	<path style="fill:url(#blue_grad)" d="M 23,7 l -22,-4 v21 l 22,4 v-21 z"/>
	<path style="fill:url(#yellow_grad)" d="M 23,28 l -22,-4 v19 c -0,1.4 1.7,2.6 4,3 l 15,2 0.7,0.7 h2.3 z"/>

	<path fill="#ffce01" d="
		m 23,51 c -1.1,0.1 -2,-0 -2.9,-0.4 -2.1,-0.9 -4.4,-1.6 -7.1,-1.6 -1,0 -2.1,0.1 -3,-0.4 
		C 8.9,47.9 8,47.8 6.8,47.9 C 4.8,48 3.2,47.4 1.6,46.8 c 1.1,1.9 2.9,3.2 5.4,3 
		c 1.3,-0.2 2,-0.2 3,0.3 0.9,0.5 2.6,0.8 4.7,0.7 1.1,-0.1 2.1,0.2 3.3,1.1 1.1,0.7 2.9,1 5.1,1.1 z" />
</g>
<use xlink:href="#left_part" transform="scale(-1,1) translate(-46,0)"/>

<path fill="#ffce01" d="m 27.4,48.8 c 0.3,1.9 0.2,3.5 0,5.2 c 0.9,-0.4 1.7,-0.8 2.6,-1.4 
	c 0.6,0.2 1.2,0.6 1.6,1.2 0.4,-1.9 0.2,-3.8 0.1,-5.8 -1.4,0.4 -2.9,0.8 -4.3,0.8 z" />



<!--trident-->
<path transform="scale(0.08) translate(166.5,150)" fill="white" 
	d="m 121 1 c -9.3 10.6 -15 24.4 -15 39.6 0.6 33.4 4.6 66.7 5 100 0.7 31.1 -8.6 60.3 -19.9 88.8 -3.8 7.9 
		-7.9 15.6 -12 23.3 l -12 -2.4 c -10.8 -2.2 -17.9 -12.7 -15.7 -23.5 1.9 -9.5 10.2 -16.1 19.5 -16.1 l 4.4 0.5 
		l -9.8 -81.6 c -3.2 -36.3 -21.9 -68.2 -49.5 -88.9 -4.7 -3.6 -9.8 -6.8 -15 -9.7 v 289.7 h 66.9 c 5 27.1 
		19.9 50.8 40.9 67 5 3.4 9.2 8 12.2 13.3 3 -5.3 7.2 -9.8 12.2 -13.3 21 -16.2 35.9 -39.9 40.9 -67 h 66.9 
		v -289.7 c -5.2 2.9 -10.3 6.1 -15 9.7 -27.6 20.7 -46.3 52.6 -49.5 88.9 l -9.8 81.6 l 4.4 -0.5 c 9.3 0 
		17.6 6.6 19.5 16.1 2.2 10.8 -4.9 21.4 -15.7 23.5 l -12 2.4 c -4.1 -7.7 -8.2 -15.4 -12 -23.3 -11.4 -28.5 
		-20.7 -57.7 -19.9 -88.8 0.4 -33.4 4.4 -66.7 5 -100 0 -15.2 -5.7 -29 -15 -39.6 z 
	m -100 71.7 c 12.9 15.2 21.6 34.1 24.2 54.9 l 8 67.3 c -10.2 5.1 -18 14.5 -20.9 25.8 h -11.3 v -148 z 
	m 200 0 v 148 h -11.3 c -2.9 -11.3 -10.7 -20.7 -20.9 -25.8 l 8 -67.3 c 2.6 -20.8 11.3 -39.7 24.2 -54.9 z 
	m -100 135.3 c 5.4 17.6 12.8 34.3 22 49.8 -8.7 2.6 -16.3 7.8 -22 14.8 -5.6 
		-7 -13.2 -12.1 -22 -14.8 9.2 -15.5 16.6 -32.2 22 -49.8 z 
	m -100 32.7 h 11.3 c 3.6 13.8 14.4 24.7 28 28.5 l 9.6 2.2 c -2.6 9.3 -4 19.1 -4 29.3 h -45 v -60 z 
	m 188.7 0 h 11.3 v 60 h -45 c 0 -10.1 -1.4 -20 -4 -29.3 l 9.6 -2.2 c 13.7 -3.8 24.5 -14.7 28 -28.5 z 
	m -120.2 35.3 c 12.1 1.7 21.5 12.1 21.5 24.7 h -25 c 0 -8.6 1.3 -16.8 3.5 -24.7 z 
	m 63 0 c 2.2 7.8 3.5 16.1 3.5 24.7 h -25 c 0 -12.6 9.4 -23 21.5 -24.7 z 
	m -64.2 44.7 h 22.7 v 42.1 c -11 -11.6 -19 -26 -22.7 -42.1 z 
	m 42.7 0 h 22.7 c -3.7 16.1 -11.7 30.6 -22.7 42.1 v -42.1 z"/>




<!--text-->
<g style="fill:none;stroke:#0054ac;stroke-width:1px;stroke-linecap:round;stroke-linejoin:round">

	<!--Ministerstvo-->
<path id="m_b" d="M 57.5,13.5 h2 M 68.5,13.5 h2 M 58.5,3.5 v10 M 69.5,3.5 v10 
	M 57.5,3.5 h1.5 l 5,10 l 5,-10 h1.5"/>
<g id="i">
	<path id="i_p" d="M 72.5,13.5 h2 M 72.5,6.5 h2 M 73.5,6.5 v7"/>
	<circle style="fill:#0054ac;stroke:none" cx="73.5" cy="4.5" r="0.5"/>
</g>
<g id="n">
	<use xlink:href="#i_p" transform="translate(4,0)"/>
	<use xlink:href="#i_p" transform="translate(9,0)"/>
	<path d="M 77.5,9.5 h5"/>
</g>
<use xlink:href="#i" transform="translate(13,0)"/>
<path id="s" d="M 95.25,8 a3,3.5,0,0,0,-2.5,-1.5 a3,3.5,0,0,0,0,7 a3,3.5,0,0,0,2.5,-1.5"/>
<path id="t" d="M 97.5,6.5 h6 M 100.5,6.5 v7 M 99.5,13.5 h2 
	M 97.5,6.5 v1 M 103.5,6.5 v1"/>
<path id="e" d="M 106,10 h5.5 a3,3.5,0,0,0,-3,-3.5 a3,3.5,0,0,0,0,7 a3,3.5,0,0,0,2.5,-1.5"/>
<path id="r" d="M 113.5,6.5 h3.5 a2.5,3.5,0,0,1,0,7 h-2 
	M 114.5,6.5 v10 M 113.5,16.5 h2"/>
<use xlink:href="#s" transform="translate(32,0)"/>
<use xlink:href="#t" transform="translate(32,0)"/>
<path id="v" d="M 137.5,6.5 h4 a1.5,1.5,0,0,1,0,3 h-3 h3 a2,2,0,0,1,0,4 h-4 M 138.5,6.5 v7"/>
<path id="o" d="M 148.5,6.5 a3,3.5,0,0,1,0,7 a3,3.5,0,0,1,0,-7"/>


<g stroke-width="1.5px">

	<!--osvity-->
<use xlink:href="#o" transform="translate(-88,17)"/>
<use xlink:href="#s" transform="translate(-24,17)"/>
<use xlink:href="#v" transform="translate(-64,17)"/>
<g id="i_bold">
	<use xlink:href="#i_p" transform="translate(9,17)"/>
	<circle style="fill:#0054ac;stroke:none" cx="82.5" cy="21" r="1"/>
</g>
<use xlink:href="#t" transform="translate(-12,17)"/>
<use xlink:href="#y" transform="translate(-11,-17)"/>

	<!--i-->
<use xlink:href="#i_bold" transform="translate(25,0)"/>

	<!--nauky-->
<use xlink:href="#n" transform="translate(38,17)"/>
<use xlink:href="#a" transform="translate(40,-17)"/>
<path id="u" d="M 131.5,23.5 h2 M 136.5,23.5 h2 
	M 132.5,23.5 l 3,7 M 137.5,23.5 l -2,7 c -1.4,3.2 -2,3 -4,3"/>
<use xlink:href="#k" transform="translate(73,-17)"/>
<use xlink:href="#y" transform="translate(44,-17)"/>

</g>


	<!--Ukrayiny-->
<path id="m_u" d="M 57.5,37.5 h2 M 64.5,37.5 h2 
	M 58.5,37.5 l 4,6 M 65.5,37.5 l -3,7 c -2,4 -3,3.5 -4,1"/>
<path id="k" d="M 67.5,40.5 h1 M 67.5,47.5 h2 M 68.5,40.5 v7 
	M 68.5,43.5 h2 l 2,4 h1 M 70.5,43.5 c 1,-0.5 1.5,-1.5 1.5,-3 h1"/>
<use xlink:href="#r" transform="translate(-38,34)"/>
<path id="a" d="M 83.5,42 a2.5,1.5,0,0,1,5,0 v5.5 h1 
	M 88.5,43.5 h-2.5 a2.5,2,0,0,0,0,4 a2.5,2,0,0,0,2.5,-1.5"/>
<g id="yi">
	<use xlink:href="#i_p" transform="translate(19,34)"/>
	<circle style="fill:#0054ac;stroke:none" cx="91.5" cy="38.5" r="0.5"/>
	<circle style="fill:#0054ac;stroke:none" cx="93.5" cy="38.5" r="0.5"/>
</g>
<use xlink:href="#n" transform="translate(19,34)"/>
<path id="y" d="M 104.5,40.5 h2 M 104.5,47.5 h1 M 105.5,40.5 v7 
	M 110.5,40.5 h1 M 109.5,47.5 h2 M 110.5,40.5 v7 
	M 105.5,47.5 l 5,-7"/>

</g>

</svg>