<svg width="252" height="58" viewBox="0 0 252 58" fill="none" xmlns="http://www.w3.org/2000/svg">
<path d="M11.2178 7.15527H2.64844V12.4775H7.06738C8.92285 12.502 10.3714 12.978 11.4131 13.9058C12.4548 14.8335 12.9756 16.0949 12.9756 17.6899C12.9756 19.2931 12.4507 20.5708 11.4009 21.5229C10.3511 22.4751 8.91878 22.9674 7.104 23H0.29248V5.22656H11.2178V7.15527ZM2.64844 14.4062V21.0835H6.93311C8.09684 21.0835 9.00016 20.7743 9.64307 20.1558C10.2941 19.5373 10.6196 18.7072 10.6196 17.6655C10.6196 16.6646 10.3063 15.8752 9.67969 15.2974C9.0612 14.7196 8.17822 14.4225 7.03076 14.4062H2.64844ZM29.8213 14.687C29.8213 16.4285 29.5283 17.9504 28.9424 19.2524C28.3564 20.5464 27.5264 21.5352 26.4521 22.2188C25.3779 22.9023 24.1247 23.2441 22.6924 23.2441C21.2926 23.2441 20.0516 22.9023 18.9692 22.2188C17.8869 21.527 17.0446 20.5464 16.4424 19.2769C15.8483 17.9992 15.5431 16.5221 15.5269 14.8457V13.564C15.5269 11.855 15.8239 10.3454 16.418 9.03516C17.012 7.72493 17.8503 6.72396 18.9326 6.03223C20.0231 5.33236 21.2682 4.98242 22.668 4.98242C24.0921 4.98242 25.3454 5.32829 26.4277 6.02002C27.5182 6.70361 28.3564 7.70052 28.9424 9.01074C29.5283 10.3128 29.8213 11.8306 29.8213 13.564V14.687ZM27.4897 13.5396C27.4897 11.4318 27.0666 9.81641 26.2202 8.69336C25.3739 7.56217 24.1898 6.99658 22.668 6.99658C21.1868 6.99658 20.019 7.56217 19.1646 8.69336C18.3182 9.81641 17.8828 11.3789 17.8584 13.3809V14.687C17.8584 16.7297 18.2856 18.3369 19.1401 19.5088C20.0028 20.6725 21.1868 21.2544 22.6924 21.2544C24.2061 21.2544 25.3779 20.7051 26.208 19.6064C27.0381 18.4997 27.4653 16.9168 27.4897 14.8579V13.5396ZM35.6807 16.042V23H33.3369V5.22656H39.8921C41.8371 5.22656 43.3589 5.72298 44.4575 6.71582C45.5643 7.70866 46.1177 9.02295 46.1177 10.6587C46.1177 12.384 45.5765 13.7145 44.4941 14.6504C43.4199 15.5781 41.8778 16.042 39.8677 16.042H35.6807ZM35.6807 14.1255H39.8921C41.1453 14.1255 42.1056 13.8325 42.7729 13.2466C43.4403 12.6525 43.7739 11.798 43.7739 10.6831C43.7739 9.62516 43.4403 8.77881 42.7729 8.14404C42.1056 7.50928 41.1901 7.17969 40.0264 7.15527H35.6807V14.1255ZM62.7803 14.687C62.7803 16.4285 62.4873 17.9504 61.9014 19.2524C61.3154 20.5464 60.4854 21.5352 59.4111 22.2188C58.3369 22.9023 57.0837 23.2441 55.6514 23.2441C54.2516 23.2441 53.0106 22.9023 51.9282 22.2188C50.8459 21.527 50.0036 20.5464 49.4014 19.2769C48.8073 17.9992 48.5021 16.5221 48.4858 14.8457V13.564C48.4858 11.855 48.7829 10.3454 49.377 9.03516C49.971 7.72493 50.8092 6.72396 51.8916 6.03223C52.9821 5.33236 54.2272 4.98242 55.627 4.98242C57.0511 4.98242 58.3044 5.32829 59.3867 6.02002C60.4772 6.70361 61.3154 7.70052 61.9014 9.01074C62.4873 10.3128 62.7803 11.8306 62.7803 13.564V14.687ZM60.4487 13.5396C60.4487 11.4318 60.0256 9.81641 59.1792 8.69336C58.3328 7.56217 57.1488 6.99658 55.627 6.99658C54.1458 6.99658 52.978 7.56217 52.1235 8.69336C51.2772 9.81641 50.8418 11.3789 50.8174 13.3809V14.687C50.8174 16.7297 51.2446 18.3369 52.0991 19.5088C52.9618 20.6725 54.1458 21.2544 55.6514 21.2544C57.165 21.2544 58.3369 20.7051 59.167 19.6064C59.9971 18.4997 60.4243 16.9168 60.4487 14.8579V13.5396ZM66.2959 23V5.22656H72.1064C74.0352 5.22656 75.4837 5.62533 76.4521 6.42285C77.4287 7.22038 77.917 8.40039 77.917 9.96289C77.917 10.793 77.681 11.5295 77.209 12.1724C76.737 12.8071 76.0941 13.2995 75.2803 13.6494C76.2406 13.918 76.9974 14.4307 77.5508 15.1875C78.1123 15.9362 78.3931 16.8314 78.3931 17.873C78.3931 19.4681 77.8763 20.7214 76.8428 21.6328C75.8092 22.5443 74.3485 23 72.4604 23H66.2959ZM68.6396 14.687V21.0835H72.5093C73.5998 21.0835 74.4583 20.8027 75.085 20.2412C75.7197 19.6715 76.0371 18.8903 76.0371 17.8975C76.0371 15.7572 74.8734 14.687 72.5459 14.687H68.6396ZM68.6396 12.8071H72.1797C73.2051 12.8071 74.0229 12.5508 74.6333 12.0381C75.2518 11.5254 75.561 10.8296 75.561 9.95068C75.561 8.97412 75.2762 8.26611 74.7065 7.82666C74.1369 7.37907 73.2702 7.15527 72.1064 7.15527H68.6396V12.8071ZM93.0781 5.22656H95.4219V23H93.0781V9.30371L84.3257 23H81.9697V5.22656H84.3257V18.9229L93.0781 5.22656ZM99.7676 5.22656H102.124V21.0835H110.888V5.22656H113.232V21.0347H115.1L114.88 27.2847H112.768V23H99.7676V5.22656ZM120.251 12.4775H124.67C126.525 12.502 127.974 12.978 129.016 13.9058C130.057 14.8335 130.578 16.0949 130.578 17.6899C130.578 19.2931 130.053 20.5708 129.003 21.5229C127.954 22.4751 126.521 22.9674 124.707 23H117.907V5.22656H120.251V12.4775ZM120.251 14.4062V21.0835H124.536C125.699 21.0835 126.603 20.7743 127.246 20.1558C127.897 19.5373 128.222 18.7072 128.222 17.6655C128.222 16.6646 127.909 15.8752 127.282 15.2974C126.664 14.7196 125.781 14.4225 124.633 14.4062H120.251ZM138.293 15.0166H136.132V23H133.789V5.22656H136.132V13.0635H137.963L144.177 5.22656H147.094L140.307 13.8447L147.595 23H144.726L138.293 15.0166ZM160.949 5.22656H163.293V23H160.949V9.30371L152.197 23H149.841V5.22656H152.197V18.9229L160.949 5.22656ZM178.771 5.22656H181.115V23H178.771V9.30371L170.019 23H167.663V5.22656H170.019V18.9229L178.771 5.22656ZM178.112 0.807617C178.112 1.79232 177.775 2.58577 177.099 3.18799C176.432 3.78206 175.553 4.0791 174.462 4.0791C173.372 4.0791 172.489 3.77799 171.813 3.17578C171.138 2.57357 170.8 1.78418 170.8 0.807617H172.644C172.644 1.37728 172.798 1.82487 173.107 2.15039C173.417 2.46777 173.868 2.62646 174.462 2.62646C175.032 2.62646 175.476 2.46777 175.793 2.15039C176.118 1.83301 176.281 1.38542 176.281 0.807617H178.112ZM200.708 9.99951C200.708 9.0555 200.362 8.3068 199.67 7.75342C198.986 7.19189 198.022 6.91113 196.777 6.91113C195.735 6.91113 194.86 7.20003 194.152 7.77783C193.452 8.34749 193.103 9.0555 193.103 9.90186H190.759C190.759 8.95785 191.015 8.11149 191.528 7.36279C192.049 6.6141 192.773 6.03223 193.701 5.61719C194.628 5.19401 195.654 4.98242 196.777 4.98242C198.763 4.98242 200.305 5.43001 201.403 6.3252C202.502 7.21224 203.051 8.44922 203.051 10.0361C203.051 10.8581 202.799 11.6068 202.294 12.2822C201.79 12.9577 201.086 13.4907 200.183 13.8813C202.274 14.5812 203.32 15.9688 203.32 18.0439C203.32 19.639 202.726 20.9045 201.538 21.8403C200.349 22.7762 198.763 23.2441 196.777 23.2441C195.597 23.2441 194.523 23.0366 193.554 22.6216C192.594 22.1984 191.845 21.6003 191.308 20.8271C190.771 20.054 190.502 19.1344 190.502 18.0684H192.846C192.846 19.0042 193.216 19.7855 193.957 20.4121C194.698 21.0306 195.638 21.3398 196.777 21.3398C198.055 21.3398 199.072 21.0428 199.829 20.4487C200.594 19.8547 200.976 19.0693 200.976 18.0928C200.976 16.0094 199.686 14.9474 197.106 14.9067H194.909V12.978H197.094C198.282 12.9536 199.182 12.6851 199.792 12.1724C200.402 11.6597 200.708 10.9354 200.708 9.99951ZM215.551 9.99951C215.551 9.0555 215.205 8.3068 214.514 7.75342C213.83 7.19189 212.866 6.91113 211.621 6.91113C210.579 6.91113 209.704 7.20003 208.996 7.77783C208.296 8.34749 207.946 9.0555 207.946 9.90186H205.603C205.603 8.95785 205.859 8.11149 206.372 7.36279C206.892 6.6141 207.617 6.03223 208.544 5.61719C209.472 5.19401 210.498 4.98242 211.621 4.98242C213.606 4.98242 215.148 5.43001 216.247 6.3252C217.346 7.21224 217.895 8.44922 217.895 10.0361C217.895 10.8581 217.643 11.6068 217.138 12.2822C216.634 12.9577 215.93 13.4907 215.026 13.8813C217.118 14.5812 218.164 15.9688 218.164 18.0439C218.164 19.639 217.569 20.9045 216.381 21.8403C215.193 22.7762 213.606 23.2441 211.621 23.2441C210.441 23.2441 209.366 23.0366 208.398 22.6216C207.438 22.1984 206.689 21.6003 206.152 20.8271C205.615 20.054 205.346 19.1344 205.346 18.0684H207.69C207.69 19.0042 208.06 19.7855 208.801 20.4121C209.541 21.0306 210.481 21.3398 211.621 21.3398C212.898 21.3398 213.916 21.0428 214.672 20.4487C215.437 19.8547 215.82 19.0693 215.82 18.0928C215.82 16.0094 214.53 14.9474 211.95 14.9067H209.753V12.978H211.938C213.126 12.9536 214.025 12.6851 214.636 12.1724C215.246 11.6597 215.551 10.9354 215.551 9.99951ZM234.35 17.3604C234.13 19.2402 233.435 20.6929 232.263 21.7183C231.099 22.7355 229.549 23.2441 227.612 23.2441C225.512 23.2441 223.828 22.4914 222.558 20.9858C221.297 19.4803 220.666 17.4661 220.666 14.9434V13.2344C220.666 11.5824 220.959 10.1297 221.545 8.87646C222.139 7.62321 222.977 6.66292 224.06 5.99561C225.142 5.32015 226.395 4.98242 227.819 4.98242C229.707 4.98242 231.221 5.51139 232.36 6.56934C233.5 7.61914 234.163 9.07585 234.35 10.9395H231.994C231.791 9.52344 231.347 8.49805 230.664 7.86328C229.988 7.22852 229.04 6.91113 227.819 6.91113C226.322 6.91113 225.146 7.46452 224.292 8.57129C223.445 9.67806 223.022 11.2528 223.022 13.2954V15.0166C223.022 16.9453 223.425 18.4793 224.23 19.6187C225.036 20.758 226.163 21.3276 227.612 21.3276C228.914 21.3276 229.911 21.0347 230.603 20.4487C231.302 19.8547 231.766 18.8252 231.994 17.3604H234.35ZM251.232 14.687C251.232 16.4285 250.939 17.9504 250.354 19.2524C249.768 20.5464 248.938 21.5352 247.863 22.2188C246.789 22.9023 245.536 23.2441 244.104 23.2441C242.704 23.2441 241.463 22.9023 240.38 22.2188C239.298 21.527 238.456 20.5464 237.854 19.2769C237.259 17.9992 236.954 16.5221 236.938 14.8457V13.564C236.938 11.855 237.235 10.3454 237.829 9.03516C238.423 7.72493 239.261 6.72396 240.344 6.03223C241.434 5.33236 242.679 4.98242 244.079 4.98242C245.503 4.98242 246.757 5.32829 247.839 6.02002C248.929 6.70361 249.768 7.70052 250.354 9.01074C250.939 10.3128 251.232 11.8306 251.232 13.564V14.687ZM248.901 13.5396C248.901 11.4318 248.478 9.81641 247.631 8.69336C246.785 7.56217 245.601 6.99658 244.079 6.99658C242.598 6.99658 241.43 7.56217 240.576 8.69336C239.729 9.81641 239.294 11.3789 239.27 13.3809V14.687C239.27 16.7297 239.697 18.3369 240.551 19.5088C241.414 20.6725 242.598 21.2544 244.104 21.2544C245.617 21.2544 246.789 20.7051 247.619 19.6064C248.449 18.4997 248.876 16.9168 248.901 14.8579V13.5396ZM60.1191 52H57.7754V34.2266H60.1191V52ZM68.7617 45.3716H62.8047V43.5283H68.7617V45.3716ZM73.8398 52H71.4961V34.2266H73.8398V52ZM80.6514 52H78.3076V34.2266H80.6514V52ZM87.4629 52H85.1191V34.2266H87.4629V52ZM102.905 50.4009C103.71 50.4009 104.414 50.1567 105.017 49.6685C105.619 49.1802 105.952 48.5698 106.018 47.8374H108.154C108.113 48.5942 107.853 49.3145 107.373 49.998C106.892 50.6816 106.25 51.2269 105.444 51.6338C104.646 52.0407 103.8 52.2441 102.905 52.2441C101.106 52.2441 99.674 51.646 98.6079 50.4497C97.55 49.2453 97.021 47.6014 97.021 45.5181V45.1396C97.021 43.8538 97.257 42.7104 97.729 41.7095C98.201 40.7085 98.8765 39.9313 99.7554 39.3779C100.642 38.8245 101.688 38.5479 102.893 38.5479C104.374 38.5479 105.603 38.9914 106.579 39.8784C107.564 40.7655 108.089 41.917 108.154 43.333H106.018C105.952 42.4785 105.627 41.7786 105.041 41.2334C104.463 40.68 103.747 40.4033 102.893 40.4033C101.745 40.4033 100.854 40.8184 100.219 41.6484C99.5926 42.4704 99.2793 43.6626 99.2793 45.2251V45.6523C99.2793 47.1742 99.5926 48.346 100.219 49.168C100.846 49.9899 101.741 50.4009 102.905 50.4009ZM120.507 40.623H116.076V52H113.818V40.623H109.472V38.792H120.507V40.623ZM127.172 48.6919L130.249 38.792H132.666L127.355 54.0386C126.534 56.2358 125.227 57.3345 123.437 57.3345L123.01 57.2979L122.167 57.1392V55.3081L122.778 55.3569C123.543 55.3569 124.137 55.2023 124.56 54.8931C124.991 54.5838 125.345 54.0182 125.622 53.1963L126.123 51.8535L121.411 38.792H123.876L127.172 48.6919ZM145.495 52H143.237V40.6597H137.158V52H134.887V38.792H145.495V52ZM154.602 52.2441C152.811 52.2441 151.354 51.6582 150.231 50.4863C149.108 49.3063 148.547 47.7316 148.547 45.7622V45.3472C148.547 44.0369 148.795 42.8691 149.292 41.8438C149.796 40.8102 150.496 40.0046 151.391 39.4268C152.294 38.8408 153.271 38.5479 154.321 38.5479C156.038 38.5479 157.373 39.1134 158.325 40.2446C159.277 41.3758 159.753 42.9953 159.753 45.103V46.043H150.805C150.838 47.3451 151.216 48.3989 151.94 49.2046C152.673 50.0021 153.601 50.4009 154.724 50.4009C155.521 50.4009 156.197 50.2381 156.75 49.9126C157.303 49.5871 157.788 49.1558 158.203 48.6187L159.582 49.6929C158.475 51.3937 156.815 52.2441 154.602 52.2441ZM154.321 40.4033C153.409 40.4033 152.644 40.737 152.026 41.4043C151.407 42.0635 151.025 42.9912 150.878 44.1875H157.495V44.0166C157.43 42.8691 157.12 41.9821 156.567 41.3555C156.014 40.7207 155.265 40.4033 154.321 40.4033ZM173.168 52H170.91V46.3604H164.843V52H162.573V38.792H164.843V44.5171H170.91V38.792H173.168V52ZM179.26 52H177.001V38.792H179.26V52ZM176.818 35.2886C176.818 34.9224 176.928 34.6131 177.148 34.3608C177.376 34.1086 177.709 33.9824 178.149 33.9824C178.588 33.9824 178.922 34.1086 179.15 34.3608C179.378 34.6131 179.492 34.9224 179.492 35.2886C179.492 35.6548 179.378 35.96 179.15 36.2041C178.922 36.4482 178.588 36.5703 178.149 36.5703C177.709 36.5703 177.376 36.4482 177.148 36.2041C176.928 35.96 176.818 35.6548 176.818 35.2886ZM183.093 52V38.792H188.244C190.002 38.792 191.349 39.1012 192.285 39.7197C193.229 40.3301 193.701 41.2293 193.701 42.4175C193.701 43.0278 193.518 43.5812 193.151 44.0776C192.785 44.5659 192.244 44.9403 191.528 45.2007C192.325 45.3879 192.964 45.7541 193.444 46.2993C193.933 46.8446 194.177 47.4956 194.177 48.2524C194.177 49.465 193.729 50.3927 192.834 51.0356C191.947 51.6785 190.69 52 189.062 52H183.093ZM185.351 46.2017V50.1812H189.086C190.03 50.1812 190.734 50.0062 191.198 49.6562C191.67 49.3063 191.906 48.814 191.906 48.1792C191.906 46.8608 190.938 46.2017 189.001 46.2017H185.351ZM185.351 44.395H188.269C190.384 44.395 191.442 43.7765 191.442 42.5396C191.442 41.3026 190.441 40.6637 188.439 40.623H185.351V44.395Z" fill="white"/>
</svg>
